<?xml version="1.0" encoding="utf-8"?>
<!-- Generator: Adobe Illustrator 16.0.0, SVG Export Plug-In . SVG Version: 6.00 Build 0)  -->
<!DOCTYPE svg PUBLIC "-//W3C//DTD SVG 1.1//EN" "http://www.w3.org/Graphics/SVG/1.1/DTD/svg11.dtd">
<svg version="1.1" id="Layer_1" xmlns="http://www.w3.org/2000/svg" xmlns:xlink="http://www.w3.org/1999/xlink" x="0px" y="0px"
	 width="13.25px" height="12.656px" viewBox="0 0 13.25 12.656" enable-background="new 0 0 13.25 12.656" xml:space="preserve">
<g>
	<g>
		<path fill="#FFFFFF" d="M7.884,4.975c-0.196,3.648-5.462,3.648-5.659,0C2.029,1.326,7.688,1.345,7.884,4.975
			c0.069,1.283,2.069,1.29,2,0c-0.147-2.731-2.099-4.682-4.83-4.829C2.329,0,0.36,2.465,0.225,4.975
			C0.078,7.7,2.544,9.67,5.054,9.805c2.725,0.146,4.695-2.319,4.83-4.83C9.953,3.686,7.953,3.692,7.884,4.975z"/>
	</g>
</g>
<g>
	<g>
		<path fill="#FFFFFF" d="M7.125,8.314c1.374,1.287,2.747,2.574,4.121,3.861c0.939,0.881,2.357-0.53,1.414-1.414
			C11.286,9.475,9.913,8.188,8.539,6.9C7.6,6.02,6.182,7.431,7.125,8.314L7.125,8.314z"/>
	</g>
</g>
</svg>
